<svg id="svg" version="1.1" xmlns="http://www.w3.org/2000/svg" xmlns:xlink="http://www.w3.org/1999/xlink" width="400" height="225" viewBox="0, 0, 400,225"><g id="svgg"><path id="path0" d="M46.768 17.969 C 47.541 21.300,61.180 99.555,61.156 100.521 C 61.094 102.988,59.781 105.215,57.163 107.292 C 54.966 109.034,53.125 110.877,53.125 111.333 C 53.125 111.849,54.938 113.315,56.250 113.859 C 59.648 115.269,62.492 117.472,64.316 120.108 C 64.942 121.013,66.098 126.660,69.590 145.875 C 71.439 156.052,78.542 196.213,78.542 196.493 C 78.542 196.590,86.996 196.645,97.328 196.616 L 116.115 196.563 122.856 159.896 C 126.738 138.781,129.561 122.920,129.511 122.500 C 129.464 122.099,129.172 120.963,128.863 119.976 L 128.301 118.180 125.290 115.519 C 123.634 114.056,122.048 112.583,121.766 112.248 L 121.252 111.637 122.032 110.895 C 122.461 110.486,123.408 109.883,124.136 109.554 C 126.491 108.490,128.972 106.714,131.056 104.599 L 133.050 102.576 133.406 100.819 C 135.622 89.860,148.542 19.045,148.542 17.853 C 148.542 17.525,147.548 17.500,134.275 17.500 L 120.008 17.500 119.900 17.969 C 119.840 18.227,118.482 26.688,116.881 36.771 C 113.025 61.061,110.252 78.175,108.831 86.458 C 108.192 90.182,107.538 94.304,107.378 95.617 C 106.759 100.704,105.000 103.797,101.621 105.740 C 97.676 108.009,94.583 110.384,94.583 111.146 C 94.583 111.603,95.249 112.198,97.289 113.562 C 100.580 115.764,102.600 118.446,102.859 120.962 C 102.982 122.152,97.741 156.181,97.482 155.877 C 97.412 155.796,96.346 148.932,95.113 140.625 C 92.006 119.709,91.614 118.428,87.551 115.921 C 79.134 110.728,79.286 110.931,82.207 108.735 C 84.655 106.896,86.828 104.780,87.569 103.517 C 88.613 101.735,88.616 101.770,86.334 86.667 C 84.691 75.793,75.850 19.828,75.498 18.073 L 75.384 17.500 61.021 17.500 L 46.659 17.500 46.768 17.969 M152.708 57.888 C 152.708 83.893,152.634 98.676,152.500 99.399 C 151.822 103.056,148.193 107.029,143.594 109.150 L 142.500 109.655 142.500 110.761 L 142.500 111.868 143.594 112.415 C 148.454 114.849,151.819 118.543,152.483 122.174 C 152.639 123.031,152.708 134.631,152.708 160.038 L 152.708 196.667 166.354 196.667 L 180.000 196.667 179.998 159.531 C 179.995 119.684,180.041 121.484,178.959 119.318 C 177.769 116.934,175.149 114.553,171.568 112.601 C 169.175 111.297,169.168 110.215,171.543 109.026 C 174.922 107.335,178.167 104.462,179.296 102.160 L 179.896 100.938 179.950 59.219 L 180.005 17.500 166.357 17.500 L 152.708 17.500 152.708 57.888 M188.472 17.639 C 188.396 17.715,188.332 36.020,188.330 58.316 C 188.326 103.099,188.407 100.395,186.983 103.074 C 185.994 104.933,185.877 105.059,183.333 106.975 C 177.924 111.050,177.505 111.960,180.313 113.538 C 183.474 115.314,185.907 117.334,187.069 119.145 C 188.407 121.229,188.333 118.871,188.333 159.627 L 188.333 196.667 225.417 196.667 L 262.500 196.667 262.500 183.229 L 262.500 169.792 239.066 169.792 L 215.632 169.792 215.576 145.256 L 215.521 120.720 214.813 119.282 C 213.860 117.346,212.597 116.148,208.783 113.561 C 204.657 110.762,204.580 110.517,207.337 109.004 C 210.847 107.077,213.838 104.361,214.958 102.083 L 215.521 100.938 215.575 59.219 L 215.629 17.500 202.120 17.500 C 194.690 17.500,188.549 17.563,188.472 17.639 M270.751 17.830 C 270.682 18.011,270.623 36.550,270.620 59.027 L 270.614 99.896 270.148 101.262 C 269.303 103.742,268.456 104.868,266.042 106.722 C 260.229 111.185,259.777 112.059,262.557 113.466 C 265.802 115.109,268.818 117.753,269.896 119.901 L 270.521 121.146 270.575 158.906 L 270.629 196.667 307.711 196.667 L 344.792 196.667 344.792 183.229 L 344.792 169.792 321.357 169.792 L 297.923 169.792 297.868 145.052 L 297.813 120.313 297.319 119.375 C 296.300 117.440,295.350 116.436,293.125 114.941 C 286.787 110.684,286.807 110.726,290.233 108.699 C 293.764 106.610,296.145 104.437,297.212 102.330 L 297.813 101.146 297.866 59.323 L 297.920 17.500 284.399 17.500 C 272.262 17.500,270.865 17.534,270.751 17.830 " stroke="none" fill="#000000" fill-rule="evenodd"></path></g></svg>