<svg id="svg" version="1.1" xmlns="http://www.w3.org/2000/svg" xmlns:xlink="http://www.w3.org/1999/xlink" width="400" height="225" viewBox="0, 0, 400,225"><g id="svgg"><path id="path0" d="M46.367 17.271 C 46.303 17.374,46.772 20.398,47.408 23.990 C 48.044 27.582,51.283 45.802,54.605 64.479 C 58.540 86.604,60.655 98.982,60.674 100.000 C 60.721 102.605,59.526 104.837,57.049 106.771 C 54.765 108.554,52.986 110.380,52.796 111.137 C 52.580 111.998,54.167 113.516,56.096 114.293 C 59.065 115.488,63.042 118.651,64.066 120.633 C 64.869 122.184,67.996 138.857,75.514 181.667 C 76.953 189.859,78.173 196.680,78.225 196.823 C 78.300 197.029,82.321 197.083,97.375 197.083 L 116.429 197.083 116.650 195.990 C 117.451 192.038,130.000 123.189,130.000 122.750 C 130.000 122.449,129.701 121.228,129.335 120.036 L 128.669 117.868 126.991 116.406 C 124.921 114.603,122.083 111.868,122.083 111.678 C 122.083 111.319,123.393 110.403,125.087 109.577 C 127.513 108.395,129.704 106.746,131.796 104.529 L 133.489 102.737 134.762 96.212 C 137.567 81.844,148.958 18.863,148.958 17.725 L 148.958 17.083 134.287 17.083 L 119.616 17.083 119.501 17.656 C 119.437 17.971,118.301 25.073,116.975 33.438 C 113.542 55.100,110.662 72.938,108.750 84.375 C 107.840 89.818,106.996 95.098,106.873 96.109 C 106.313 100.748,104.514 103.463,100.359 105.947 C 93.246 110.198,92.803 111.176,96.809 113.786 C 100.224 116.012,102.260 118.737,102.422 121.301 C 102.521 122.876,97.639 153.775,97.426 152.917 C 97.355 152.630,96.360 146.107,95.214 138.420 C 92.168 117.980,92.322 118.363,85.416 114.005 C 79.758 110.434,80.037 110.891,82.448 109.146 C 86.257 106.390,88.493 103.649,88.700 101.479 C 88.864 99.770,86.218 82.323,78.131 31.788 C 76.867 23.892,75.833 17.353,75.833 17.257 C 75.833 17.019,46.514 17.033,46.367 17.271 M152.292 57.698 C 152.292 86.647,152.225 98.630,152.060 99.417 C 151.332 102.898,148.199 106.303,143.594 108.620 L 142.083 109.380 142.083 110.793 L 142.083 112.205 143.281 112.789 C 147.970 115.074,151.321 118.685,152.062 122.250 C 152.224 123.030,152.292 134.180,152.292 160.219 L 152.292 197.083 166.354 197.083 L 180.417 197.083 180.417 159.731 C 180.417 118.531,180.505 121.301,179.108 118.664 C 177.889 116.363,174.998 113.854,171.407 111.979 C 169.768 111.124,169.908 110.345,171.875 109.370 C 174.833 107.905,177.853 105.455,179.069 103.534 C 180.524 101.234,180.417 104.810,180.417 58.627 L 180.417 17.083 166.354 17.083 L 152.292 17.083 152.292 57.698 M188.154 17.361 C 187.987 17.562,187.907 29.088,187.868 58.872 L 187.813 100.104 187.347 101.254 C 186.361 103.687,185.658 104.558,183.021 106.607 C 177.152 111.167,176.775 112.119,180.104 113.964 C 184.349 116.316,186.780 118.749,187.581 121.444 C 187.884 122.467,187.917 126.164,187.917 159.829 L 187.917 197.083 225.290 197.083 C 259.178 197.083,262.676 197.053,262.790 196.754 C 262.860 196.573,262.917 190.486,262.917 183.229 C 262.917 175.972,262.860 169.886,262.790 169.705 C 262.676 169.407,260.418 169.375,239.357 169.375 L 216.050 169.375 215.994 144.943 L 215.938 120.512 215.268 119.162 C 214.238 117.085,213.264 116.078,210.435 114.161 C 205.480 110.804,205.362 110.656,206.937 109.796 C 210.818 107.677,214.200 104.688,215.335 102.374 L 215.938 101.146 215.992 59.115 L 216.047 17.083 202.216 17.083 C 190.936 17.083,188.342 17.135,188.154 17.361 M270.481 17.344 C 270.388 17.487,270.266 36.268,270.208 59.078 L 270.104 100.552 269.221 102.336 C 268.158 104.480,267.884 104.774,264.657 107.240 C 259.269 111.358,259.164 112.115,263.621 114.667 C 266.548 116.342,268.738 118.466,269.753 120.612 C 270.077 121.297,270.112 124.268,270.208 159.167 L 270.313 196.979 307.760 197.032 L 345.208 197.084 345.208 183.230 L 345.208 169.375 321.773 169.375 L 298.338 169.375 298.284 144.839 L 298.229 120.304 297.537 118.897 C 296.616 117.027,295.344 115.825,291.563 113.250 C 287.764 110.663,287.785 110.737,290.395 109.169 C 294.465 106.724,297.049 104.234,297.919 101.919 C 298.327 100.833,298.333 100.225,298.333 58.951 L 298.333 17.083 284.491 17.083 C 273.647 17.083,270.613 17.140,270.481 17.344 " stroke="none" fill="#ffffff" fill-rule="evenodd"></path><path id="path1" d="" stroke="none" fill="#080404" fill-rule="evenodd"></path></g></svg>
