<?xml version="1.0" encoding="utf-8"?>
<svg width="40px" height="40px" viewbox="0 0 40 40" version="1.1" xmlns:xlink="http://www.w3.org/1999/xlink" xmlns="http://www.w3.org/2000/svg">
  <defs>
    <path d="M0 0L52 0L52 52L0 52L0 0Z" id="path_1" />
    <rect width="40" height="40" id="slice_1" />
    <clipPath id="clip_1">
      <use xlink:href="#slice_1" clip-rule="evenodd" />
    </clipPath>
    <clipPath id="mask_1">
      <use xlink:href="#path_1" />
    </clipPath>
  </defs>
  <g id="Slice" clip-path="url(#clip_1)">
    <use xlink:href="#slice_1" stroke="none" fill="none" />
    <g id="Artboard" clip-path="url(#clip_1)" transform="translate(0.012500763 -0.012499809)">
      <use xlink:href="#slice_1" stroke="none" fill="#FFFFFF" fill-opacity="0" />
      <g id="amazonmusic" transform="translate(-6 -6)">
        <path d="M0 0L52 0L52 52L0 52L0 0Z" id="Background" fill="none" fill-rule="evenodd" stroke="none" />
        <g clip-path="url(#mask_1)">
          <path d="M39 8.66667L39 13L0 13L0 8.66667C0 3.87833 3.87833 0 8.66667 0L30.3333 0C35.1217 0 39 3.87833 39 8.66667L39 8.66667Z" transform="translate(6.5 6.5)" id="Shape" fill="#4400FF" fill-rule="evenodd" stroke="none" />
          <path d="M39 0L39 4.33333C39 9.12167 35.1217 13 30.3333 13L8.66667 13C3.87833 13 0 9.12167 0 4.33333L0 0L39 0L39 0Z" transform="translate(6.5 32.5)" id="Shape" fill="#331799" fill-rule="evenodd" stroke="none" />
          <path d="M0 0L39 0L39 13L0 13L0 0Z" transform="translate(6.5 19.5)" id="Rectangle" fill="#3D09D7" fill-rule="evenodd" stroke="none" />
          <path d="M3.28873 0C2.27473 0 1.07006 0.252416 0.182809 0.885083C-0.0706921 1.07467 -0.0706921 1.32708 0.246724 1.32708C1.26073 1.20033 3.54331 0.885081 3.98639 1.45383C4.36664 1.95975 3.54222 4.10908 3.16197 5.11983C3.03522 5.43616 3.28872 5.499 3.54222 5.30941C5.25389 3.85558 5.69697 0.883998 5.38064 0.504831C5.18998 0.189582 4.30273 0 3.28873 0L3.28873 0Z" transform="translate(35.691772 31.416668)" id="Shape" fill="#FFFFFF" fill-rule="evenodd" stroke="none" />
          <path d="M0.418328 0.0414251C2.37916 1.26884 4.36166 2.44101 6.44274 3.32609C8.51625 4.20901 10.6916 4.84059 12.8777 4.84926C15.104 4.90884 17.3649 4.60334 19.5587 4.10393C21.76 3.59693 23.905 2.83317 26.0121 1.93943C26.2872 1.82134 26.6068 1.95026 26.7238 2.22543C26.8322 2.48001 26.7303 2.77251 26.4963 2.90901C24.4521 4.08876 22.241 5.00309 19.9378 5.62276C17.6282 6.24242 15.2427 6.51326 12.8279 6.47426C10.3622 6.34534 8.00166 5.59459 5.88916 4.50151C3.77124 3.40301 1.84833 2.02067 0.0922435 0.47476C-0.0204233 0.375094 -0.0312568 0.203927 0.0673271 0.09126C0.158328 -0.00949049 0.307828 -0.0279074 0.418328 0.0414251L0.418328 0.0414251Z" transform="translate(10.577507 32.24191)" id="Shape" fill="#FFFFFF" fill-rule="evenodd" stroke="none" />
          <path d="M2.70833 6.5L2.27067 6.5C1.01833 6.5 0 5.48167 0 4.22933L0 0L1.08333 0L1.08333 4.22933C1.08333 4.88367 1.61633 5.41667 2.27067 5.41667L2.70833 5.41667C3.36158 5.41667 4.33333 4.44492 4.33333 3.79167L4.33333 2.70833L5.41667 2.70833L5.41667 3.79167C5.41667 5.057 3.97367 6.5 2.70833 6.5L2.70833 6.5Z" transform="translate(21.666668 22.75)" id="Shape" fill="#FFFFFF" fill-rule="evenodd" stroke="none" />
          <path d="M0 0L1.08333 0L1.08333 6.5L0 6.5L0 0Z" transform="translate(11.916668 22.75)" id="Rectangle" fill="#FFFFFF" fill-rule="evenodd" stroke="none" />
          <path d="M0.00192062 2.3983C-0.0208293 1.87071 0.161171 1.43305 0.40492 1.03655C0.53167 0.838296 0.671421 0.648713 0.868587 0.469962C1.08742 0.284713 1.33875 0.16338 1.59659 0.0810463C2.66259 -0.235287 3.77517 0.411463 4.23775 1.37671C4.47934 1.8653 4.45659 2.45355 4.45334 2.81105L4.45334 4.04171L4.45334 6.50413L3.37 6.50413L3.37 4.04171L3.37 2.81105C3.37217 2.35496 3.37867 2.09171 3.253 1.82955C3.02659 1.29005 2.35817 1.05063 1.80675 1.06688C1.32359 1.0463 0.676837 1.81438 0.542505 2.3983L0.00192062 2.3983L0.00192062 2.3983Z" transform="translate(12.338329 22.74587)" id="Shape" fill="#FFFFFF" fill-rule="evenodd" stroke="none" />
          <path d="M0.00192062 2.3983C-0.0208293 1.87071 0.161171 1.43305 0.40492 1.03655C0.53167 0.838296 0.671421 0.648713 0.868588 0.469962C1.08742 0.284713 1.33875 0.16338 1.59659 0.0810463C2.66259 -0.235287 3.77517 0.411463 4.23775 1.37671C4.47934 1.8653 4.45659 2.45355 4.45334 2.81105L4.45334 4.04171L4.45334 6.50413L3.37 6.50413L3.37 4.04171L3.37 2.81105C3.37217 2.35496 3.37867 2.09171 3.253 1.82955C3.02659 1.29005 2.35817 1.05063 1.80675 1.06688C1.32359 1.0463 0.676838 1.81438 0.542505 2.3983L0.00192062 2.3983L0.00192062 2.3983Z" transform="translate(15.977246 22.74587)" id="Shape" fill="#FFFFFF" fill-rule="evenodd" stroke="none" />
          <path d="M0 0L1.08333 0L1.08333 6.5L0 6.5L0 0Z" transform="translate(26 22.75)" id="Rectangle" fill="#FFFFFF" fill-rule="evenodd" stroke="none" />
          <path d="M0 0L1.08333 0L1.08333 6.5L0 6.5L0 0Z" transform="translate(33.583336 22.75)" id="Rectangle" fill="#FFFFFF" fill-rule="evenodd" stroke="none" />
          <path d="M0 1.08333C0 0.485025 0.485025 0 1.08333 0C1.68164 0 2.16667 0.485025 2.16667 1.08333C2.16667 1.68164 1.68164 2.16667 1.08333 2.16667C0.485025 2.16667 0 1.68164 0 1.08333Z" transform="translate(33.041668 19.5)" id="Circle" fill="#FFFFFF" fill-rule="evenodd" stroke="none" />
          <path d="M1.08333 2.83833L1.08333 3.66167C1.08333 4.62583 1.87417 5.41667 2.83833 5.41667C3.30416 5.41667 3.74833 5.2325 4.08417 4.9075L4.33333 4.65833L4.33333 6.06666C3.88917 6.34833 3.38 6.5 2.83833 6.5C1.27833 6.5 0 5.22167 0 3.66167L0 2.83833C0 1.27833 1.27833 0 2.83833 0C3.38 0 3.88917 0.151666 4.33333 0.433333L4.33333 1.84167L4.08417 1.5925C3.74833 1.2675 3.30416 1.08333 2.83833 1.08333C1.87417 1.08333 1.08333 1.87417 1.08333 2.83833L1.08333 2.83833Z" transform="translate(35.75 22.75)" id="Shape" fill="#FFFFFF" fill-rule="evenodd" stroke="none" />
          <path d="M1.34875 1.26496C1.24042 1.34079 1.08333 1.56287 1.08333 1.85537C1.08333 2.48371 1.43 2.66787 2.34 2.97121C3.185 3.24204 4.33333 3.63204 4.33333 5.10537C4.33333 5.66871 4.11666 6.13454 3.69417 6.45954C3.16333 6.87121 2.36167 7.00121 1.5925 7.00121C1.0075 7.00121 0.422499 6.92537 0 6.84954L0 5.74454C1.01833 5.95037 2.47 6.04787 3.0225 5.60371C3.13083 5.52788 3.25 5.39787 3.25 5.10538C3.25 4.47704 2.90333 4.29288 1.99333 3.98954C1.14833 3.71871 0 3.32871 0 1.85537C0 1.29204 0.216667 0.826206 0.639167 0.501207C1.58167 -0.23546 3.13842 -0.0393774 4.09825 0.32354L4.09825 1.42854C3.09508 0.850041 1.90125 0.82079 1.34875 1.26496L1.34875 1.26496Z" transform="translate(28.166668 22.519629)" id="Shape" fill="#FFFFFF" fill-rule="evenodd" stroke="none" />
        </g>
      </g>
    </g>
  </g>
</svg>